# xmcd CD database file
#
# Track frame offsets:
#	150
#	17737
#	33245
#	49282
#	65350
#	86465
#	99517
#	115955
#	133117
#	151415
#	167330
#	183470
#	199885
#	216362
#	235280
#	254960
#
# Disc length: 3609 seconds
#
# Revision: 68
# Processed by: cddbd v1.5.2PL0 Copyright (c) Steve Scherf et al.
# Submitted via: CDex 1.70beta2
#
DISCID=e40e1710
DTITLE=Shania Twain - Come On Over
DYEAR=1997
DGENRE=Country
TTITLE0=Man! I Feel Like A Woman! ( 1997 ) - Shania Twain
TTITLE1=I'm Holdin' On To Love ( To Save My Life ) ( 1997 ) - Shania Twain
TTITLE2=Love Gets Me Every Time ( 1997 ) - Shania Twain
TTITLE3=Don't Be Stupid ( You Know I Love You ) ( 1997 ) - Shania Twain
TTITLE4=From This Moment On ( Guest Vocal Bryan White ) ( 1997 ) - Shania Twain
TTITLE5=Come On Over ( 1997 ) - Shania Twain
TTITLE6=When ( 1997 ) - Shania Twain
TTITLE7=Whatever You Do! Don't! ( 1997 ) - Shania Twain
TTITLE8=If You Wanna Touch Her, Ask! ( 1997 ) - Shania Twain
TTITLE9=You're Still The One ( 1997 ) - Shania Twain
TTITLE10=Honey, I'm Home ( 1997 ) - Shania Twain
TTITLE11=That Don't Impress Me Much ( 1997 ) - Shania Twain
TTITLE12=Black Eyes, Blue Tears ( 1997 ) - Shania Twain
TTITLE13=I Won't Leave You Lonely ( 1997 ) - Shania Twain
TTITLE14=Rock This Country! ( 1997 ) - Shania Twain
TTITLE15=You've Got A Way ( 1997 ) - Shania Twain
EXTD=YEAR: 1997
EXTT0=
EXTT1=
EXTT2=
EXTT3=
EXTT4=
EXTT5=
EXTT6=
EXTT7=
EXTT8=
EXTT9=
EXTT10=
EXTT11=
EXTT12=
EXTT13=
EXTT14=
EXTT15=
PLAYORDER=
